<mxfile host="Electron" modified="2024-01-06T14:46:33.642Z" agent="Mozilla/5.0 (Windows NT 10.0; Win64; x64) AppleWebKit/537.36 (KHTML, like Gecko) draw.io/22.1.15 Chrome/120.0.6099.109 Electron/28.1.0 Safari/537.36" etag="54ydKXK62p4RJdlcf6PG" version="22.1.15" type="device">
  <diagram name="Seite-1" id="TGDNc4WADawrQPTaSJyK">
    <mxGraphModel dx="1147" dy="696" grid="1" gridSize="10" guides="1" tooltips="1" connect="1" arrows="1" fold="1" page="1" pageScale="1" pageWidth="827" pageHeight="1169" math="0" shadow="0">
      <root>
        <mxCell id="0" />
        <mxCell id="1" parent="0" />
        <mxCell id="BHmO6kIKdRI3CrME6PaI-5" value="&lt;h1&gt;Database - PGVectors&lt;/h1&gt;&lt;p&gt;- Create Vector Extension&lt;br&gt;- ID is default&lt;br&gt;&lt;span style=&quot;background-color: initial;&quot;&gt;- Timestamps (created_at, updated_at) are included in each table&lt;br&gt;- FK (OnUpdate, OnDelete): Cascade (C), Delete (D), Set Null (N)&lt;/span&gt;&lt;/p&gt;" style="text;html=1;strokeColor=none;fillColor=none;spacing=5;spacingTop=-20;whiteSpace=wrap;overflow=hidden;rounded=0;" parent="1" vertex="1">
          <mxGeometry x="150" y="110" width="430" height="120" as="geometry" />
        </mxCell>
        <mxCell id="BHmO6kIKdRI3CrME6PaI-6" value="users" style="swimlane;fontStyle=0;childLayout=stackLayout;horizontal=1;startSize=30;horizontalStack=0;resizeParent=1;resizeParentMax=0;resizeLast=0;collapsible=1;marginBottom=0;whiteSpace=wrap;html=1;fillColor=#dae8fc;strokeColor=#6c8ebf;" parent="1" vertex="1">
          <mxGeometry x="340" y="430" width="160" height="120" as="geometry" />
        </mxCell>
        <mxCell id="BHmO6kIKdRI3CrME6PaI-7" value="- name: string&lt;br&gt;- emai: unique, string&lt;br&gt;- avatar: nullable, string&lt;br&gt;- password: string&lt;br&gt;- token: nullable, string" style="text;strokeColor=none;fillColor=none;align=left;verticalAlign=middle;spacingLeft=4;spacingRight=4;overflow=hidden;points=[[0,0.5],[1,0.5]];portConstraint=eastwest;rotatable=0;whiteSpace=wrap;html=1;" parent="BHmO6kIKdRI3CrME6PaI-6" vertex="1">
          <mxGeometry y="30" width="160" height="90" as="geometry" />
        </mxCell>
        <mxCell id="BHmO6kIKdRI3CrME6PaI-10" value="user_admins" style="swimlane;fontStyle=0;childLayout=stackLayout;horizontal=1;startSize=30;horizontalStack=0;resizeParent=1;resizeParentMax=0;resizeLast=0;collapsible=1;marginBottom=0;whiteSpace=wrap;html=1;fillColor=#dae8fc;strokeColor=#6c8ebf;" parent="1" vertex="1">
          <mxGeometry x="100" y="420" width="140" height="80" as="geometry" />
        </mxCell>
        <mxCell id="BHmO6kIKdRI3CrME6PaI-11" value="- user_id: FK (C, C)&lt;br&gt;- role: string" style="text;strokeColor=none;fillColor=none;align=left;verticalAlign=middle;spacingLeft=4;spacingRight=4;overflow=hidden;points=[[0,0.5],[1,0.5]];portConstraint=eastwest;rotatable=0;whiteSpace=wrap;html=1;" parent="BHmO6kIKdRI3CrME6PaI-10" vertex="1">
          <mxGeometry y="30" width="140" height="50" as="geometry" />
        </mxCell>
        <mxCell id="BHmO6kIKdRI3CrME6PaI-26" value="OAUTH" style="swimlane;fontStyle=0;childLayout=stackLayout;horizontal=1;startSize=30;horizontalStack=0;resizeParent=1;resizeParentMax=0;resizeLast=0;collapsible=1;marginBottom=0;whiteSpace=wrap;html=1;fillColor=#f5f5f5;strokeColor=#666666;fontColor=#333333;" parent="1" vertex="1">
          <mxGeometry x="150" y="700" width="140" height="90" as="geometry" />
        </mxCell>
        <mxCell id="BHmO6kIKdRI3CrME6PaI-27" value="OAUTH Tables &amp;amp; Attributes" style="text;strokeColor=none;fillColor=none;align=left;verticalAlign=middle;spacingLeft=4;spacingRight=4;overflow=hidden;points=[[0,0.5],[1,0.5]];portConstraint=eastwest;rotatable=0;whiteSpace=wrap;html=1;" parent="BHmO6kIKdRI3CrME6PaI-26" vertex="1">
          <mxGeometry y="30" width="140" height="60" as="geometry" />
        </mxCell>
        <mxCell id="Hc92O0Vrx1jAWvMpjWFc-1" style="edgeStyle=orthogonalEdgeStyle;rounded=0;orthogonalLoop=1;jettySize=auto;html=1;entryX=-0.011;entryY=0.175;entryDx=0;entryDy=0;entryPerimeter=0;" parent="1" source="BHmO6kIKdRI3CrME6PaI-11" target="BHmO6kIKdRI3CrME6PaI-7" edge="1">
          <mxGeometry relative="1" as="geometry" />
        </mxCell>
        <mxCell id="GFoDhyOt5dwrS9XRjFBp-3" value="1:1" style="edgeLabel;html=1;align=center;verticalAlign=middle;resizable=0;points=[];" vertex="1" connectable="0" parent="Hc92O0Vrx1jAWvMpjWFc-1">
          <mxGeometry x="-0.067" y="-2" relative="1" as="geometry">
            <mxPoint as="offset" />
          </mxGeometry>
        </mxCell>
        <mxCell id="n4Qi0mfz-kGRpUW987u9-1" value="app_releases" style="swimlane;fontStyle=0;childLayout=stackLayout;horizontal=1;startSize=30;horizontalStack=0;resizeParent=1;resizeParentMax=0;resizeLast=0;collapsible=1;marginBottom=0;whiteSpace=wrap;html=1;fillColor=#fff2cc;strokeColor=#d6b656;" parent="1" vertex="1">
          <mxGeometry x="100" y="260" width="140" height="110" as="geometry" />
        </mxCell>
        <mxCell id="n4Qi0mfz-kGRpUW987u9-2" value="- titel: string&lt;br&gt;- version: string&lt;br&gt;- description: text&lt;br&gt;- type: string" style="text;strokeColor=none;fillColor=none;align=left;verticalAlign=middle;spacingLeft=4;spacingRight=4;overflow=hidden;points=[[0,0.5],[1,0.5]];portConstraint=eastwest;rotatable=0;whiteSpace=wrap;html=1;" parent="n4Qi0mfz-kGRpUW987u9-1" vertex="1">
          <mxGeometry y="30" width="140" height="80" as="geometry" />
        </mxCell>
        <mxCell id="GFoDhyOt5dwrS9XRjFBp-1" style="edgeStyle=orthogonalEdgeStyle;rounded=0;orthogonalLoop=1;jettySize=auto;html=1;entryX=0.236;entryY=1.001;entryDx=0;entryDy=0;entryPerimeter=0;" edge="1" parent="1" source="BHmO6kIKdRI3CrME6PaI-26" target="BHmO6kIKdRI3CrME6PaI-7">
          <mxGeometry relative="1" as="geometry" />
        </mxCell>
      </root>
    </mxGraphModel>
  </diagram>
</mxfile>
